<svg xmlns="http://www.w3.org/2000/svg" width="226" height="48" viewBox="0 0 226 48" fill="none">
  <path d="M175.263 10.5686H183.895V33.4827C183.895 37.9819 182.447 41.3824 179.606 43.6842C176.764 46.0384 173.065 47.1894 168.561 47.1894C163.307 47.1894 159.125 45.6199 156.016 42.4287V41.7486L159.554 37.4587H160.197C162.396 39.8129 165.237 40.9638 168.615 40.9638C170.706 40.9638 172.475 40.4407 173.869 39.4467C175.263 38.4527 175.96 36.9356 175.96 34.9476V32.7503C174.03 34.7383 171.456 35.7323 168.347 35.7323C164.916 35.7323 162.128 34.6337 159.983 32.4887C157.838 30.3438 156.766 27.4665 156.766 23.8567V10.5686H165.505V23.3859C165.505 24.903 165.934 26.1063 166.846 27.1003C167.703 28.0419 168.883 28.5128 170.384 28.5128C171.939 28.5128 173.118 28.0419 174.03 27.0479C174.888 26.054 175.37 24.7984 175.37 23.2289V10.5686H175.263Z" fill="#4AD6AB"/>
  <path d="M0 23.6986C0 19.775 1.28673 16.5314 3.80658 13.9679C6.38004 11.4045 9.65048 10.1489 13.6179 10.1489C17.6389 10.1489 20.9094 11.4045 23.4292 13.9679C26.0027 16.5314 27.2358 19.775 27.2358 23.6986C27.2358 27.6223 25.9491 30.8658 23.4292 33.4293C20.8558 35.9927 17.5853 37.3006 13.5643 37.3006C9.54325 37.3006 6.27281 35.9927 3.75296 33.4293C1.28673 30.8658 0 27.6223 0 23.6986ZM4.18187 23.6986C4.18187 26.4713 5.03969 28.7732 6.80895 30.6042C8.5782 32.4353 10.83 33.3246 13.6179 33.3246C16.4058 33.3246 18.7112 32.4353 20.4268 30.6042C22.1425 28.8255 23.0003 26.4713 23.0003 23.6986C23.0003 20.8736 22.1425 18.5717 20.4268 16.793C18.7112 15.0143 16.4058 14.1249 13.6179 14.1249C10.83 14.1249 8.52459 15.0143 6.80895 16.8453C5.09331 18.624 4.18187 20.9259 4.18187 23.6986Z" fill="#15AAFD"/>
  <path d="M30.6133 10.5674H34.8488V15.3281C37.0469 11.8753 40.371 10.1489 44.8209 10.1489C48.6275 10.1489 51.7907 11.4045 54.257 13.9679C56.7232 16.5314 57.9563 19.775 57.9563 23.6986C57.9563 27.6223 56.7232 30.8135 54.257 33.377C51.7907 35.9404 48.6275 37.196 44.8209 37.196C40.371 37.196 37.0469 35.4696 34.8488 32.0168V47.2405H30.6669V10.5674H30.6133ZM37.4758 30.6566C39.1915 32.4353 41.4433 33.3246 44.2848 33.3246C47.1263 33.3246 49.4317 32.4353 51.1474 30.6566C52.9166 28.8778 53.7744 26.576 53.7744 23.7509C53.7744 20.9259 52.9166 18.624 51.1474 16.8453C49.3781 15.0666 47.1263 14.1249 44.2848 14.1249C41.4433 14.1249 39.1379 15.0143 37.4222 16.8453C35.7066 18.624 34.8488 20.9259 34.8488 23.7509C34.8488 26.576 35.7066 28.8255 37.4758 30.6566Z" fill="#15AAFD"/>
  <path d="M64.2285 13.9676C66.7483 11.4565 70.0187 10.2009 74.0398 10.2009C78.8114 10.2009 82.4035 11.9273 84.977 15.4325L81.8674 17.7343C80.0981 15.3278 77.5247 14.1246 74.147 14.1246C71.2519 14.1246 68.9465 15.0139 67.1772 16.7927C65.408 18.5714 64.5501 20.8733 64.5501 23.6983C64.5501 26.5233 65.408 28.8252 67.1772 30.6039C68.9465 32.3827 71.2519 33.3243 74.147 33.3243C77.4711 33.3243 80.0445 32.1211 81.8674 29.7146L84.977 31.9118C82.5108 35.4169 78.865 37.1957 74.0398 37.1957C70.0187 37.1957 66.7483 35.9401 64.2285 33.3766C61.7086 30.8132 60.4219 27.5696 60.4219 23.646C60.4755 19.7223 61.7086 16.4788 64.2285 13.9676Z" fill="#15AAFD"/>
  <path d="M88.5162 0.6801C88.9987 0.209262 89.6421 0 90.3391 0C91.0361 0 91.6258 0.209262 92.162 0.6801C92.6445 1.15094 92.9125 1.72641 92.9125 2.45882C92.9125 3.19124 92.6445 3.76671 92.162 4.28986C91.6258 4.7607 91.0361 5.02228 90.3391 5.02228C89.6957 5.02228 89.106 4.7607 88.5698 4.28986C88.0337 3.81902 87.7656 3.19124 87.7656 2.45882C87.7656 1.72641 88.0337 1.15094 88.5162 0.6801ZM88.2482 36.7777V10.5677H92.4836L92.43 36.7777H88.2482Z" fill="#15AAFD"/>
  <path d="M96.2891 23.6985C96.2891 19.7748 97.5758 16.5313 100.096 13.9678C102.669 11.4044 105.94 10.1488 109.907 10.1488C113.928 10.1488 117.198 11.4044 119.718 13.9678C122.292 16.5313 123.525 19.7748 123.525 23.6985C123.525 27.6222 122.238 30.8657 119.718 33.4292C117.145 35.9926 113.874 37.3005 109.853 37.3005C105.832 37.3005 102.562 35.9926 100.042 33.4292C97.5758 30.8657 96.2891 27.6222 96.2891 23.6985ZM103.098 30.5518C104.867 32.3829 107.119 33.2722 109.907 33.2722C112.695 33.2722 115 32.3829 116.716 30.5518C118.432 28.7731 119.289 26.4189 119.289 23.6462C119.289 20.8211 118.432 18.5193 116.716 16.7406C115 14.9618 112.695 14.0725 109.907 14.0725C107.119 14.0725 104.814 14.9618 103.098 16.7929C101.329 18.5716 100.471 20.8735 100.471 23.6462C100.471 26.4712 101.382 28.7731 103.098 30.5518ZM108.084 6.80063L110.765 1.20288H114.625L111.73 6.80063H108.084Z" fill="#15AAFD"/>
  <path d="M126.902 10.5671H131.084V14.1246C133.014 11.5088 135.909 10.2009 139.716 10.2009C142.665 10.2009 145.185 11.0903 147.276 12.869C149.367 14.6477 150.385 17.2635 150.385 20.7163V36.8295H146.203V21.2395C146.203 18.833 145.453 17.0019 144.005 15.694C142.558 14.3862 140.735 13.7584 138.59 13.7584C136.446 13.7584 134.676 14.3862 133.229 15.694C131.781 17.0019 131.084 18.833 131.084 21.2395V36.7771H126.902V10.5671Z" fill="#15AAFD"/>
  <path d="M225.072 25.3748C224.267 21.6604 222.176 18.2075 219.281 15.6441C216.011 12.7667 211.239 10.5172 206.789 10.5695C202.071 10.6218 197.568 12.139 193.976 15.1733C189.847 18.6784 187.488 23.8053 187.488 29.0891C187.488 31.7572 188.078 34.373 189.15 36.7795C191.348 41.4879 195.906 45.4639 201.053 46.7717C201.589 46.9287 203.412 47.2949 205.771 47.2426C209.363 47.0856 212.097 45.9347 213.598 45.15C211.454 45.4115 207.915 45.5162 203.948 44.1037C202.822 43.6851 201.589 43.2143 200.195 42.2203C195.745 39.0291 194.941 33.9022 194.726 32.6989C194.404 30.6063 194.404 28.4614 195.101 26.4734C195.798 24.4854 197.246 22.7067 199.176 21.765C201.053 20.8756 203.304 20.9279 205.181 21.8173C207.004 22.7067 208.398 24.5377 208.773 26.4734C208.987 27.572 208.934 28.7229 209.202 29.7692C209.47 30.8679 210.221 31.9665 211.346 32.1234C212.311 32.2804 213.276 31.7572 213.813 30.9725C214.349 30.1878 214.563 29.2461 214.67 28.3044C215.099 23.8053 212.848 19.1492 209.041 16.5335C211.936 17.0043 214.563 18.5738 216.386 20.8233C218.155 23.0729 219.067 25.9502 218.906 28.8276C218.745 31.3387 217.619 33.9022 215.475 35.367C213.545 36.7272 210.864 36.9888 208.666 36.0471C206.468 35.1054 204.859 33.0128 204.537 30.7109C204.377 29.6646 204.484 28.6183 204.269 27.6243C204.055 26.578 203.465 25.5317 202.447 25.2178C201.481 24.9039 200.409 25.3748 199.766 26.1595C199.122 26.9442 198.854 27.9382 198.747 28.9322C198.157 33.379 200.302 38.0351 204.055 40.5985C208.612 43.6851 214.456 43.2143 219.067 40.5462C219.335 40.3893 219.603 40.2323 219.871 40.0754C222.016 38.7152 223.517 36.4133 224.428 34.1114C225.286 31.8619 225.661 29.403 225.393 26.9965C225.286 26.5257 225.179 25.9502 225.072 25.3748Z" fill="#4AD6AB"/>
</svg>