<svg width="72" height="60" viewBox="0 0 72 60" fill="none" xmlns="http://www.w3.org/2000/svg">
<path d="M19.7997 23.6326H28.7258V46.1087C28.7258 50.4832 27.2651 53.8521 24.3439 56.1148C21.4226 58.3775 17.6358 59.534 12.9293 59.534C7.51955 59.534 3.19175 57.9752 0 54.8577V54.2041L3.67863 49.9804H4.3278C6.59989 52.2934 9.52115 53.4498 12.9834 53.4498C15.1473 53.4498 16.9325 52.947 18.3931 51.9917C19.7997 50.986 20.557 49.5278 20.557 47.5668V45.4047C18.5554 47.3657 15.9588 48.3211 12.7129 48.3211C9.14247 48.3211 6.27531 47.2651 4.05731 45.1533C1.83931 43.0415 0.757364 40.2257 0.757364 36.7059V23.6326H9.73754V36.2031C9.73754 37.6613 10.1703 38.868 11.09 39.8234C12.0096 40.7788 13.1998 41.2313 14.7145 41.2313C16.2833 41.2313 17.5276 40.7285 18.4472 39.7731C19.3669 38.8178 19.7997 37.5607 19.7997 36.002V23.6326Z" fill="white"/>
<path d="M0 10.7101C0 8.89994 0.595072 7.44176 1.83931 6.28527C3.02946 5.12879 4.59828 4.57568 6.49169 4.57568C8.38511 4.57568 9.95393 5.12879 11.1441 6.28527C12.3342 7.44176 12.9834 8.89994 12.9834 10.7101C12.9834 12.47 12.3883 13.9281 11.1982 15.1349C9.95393 16.2914 8.4392 16.8948 6.49169 16.8948C4.59828 16.8948 3.02946 16.2914 1.83931 15.1349C0.595072 13.9784 0 12.47 0 10.7101ZM2.00161 10.7101C2.00161 11.9671 2.43439 13.0231 3.24585 13.8276C4.05731 14.6321 5.13926 15.0846 6.49169 15.0846C7.84413 15.0846 8.87198 14.6824 9.73754 13.8779C10.549 13.0734 10.9818 12.0174 10.9818 10.7604C10.9818 9.50333 10.549 8.4474 9.73754 7.64289C8.92608 6.83838 7.84413 6.43612 6.49169 6.43612C5.13926 6.43612 4.05731 6.83838 3.24585 7.64289C2.43439 8.4474 2.00161 9.45304 2.00161 10.7101Z" fill="white"/>
<path d="M14.5508 4.77681H16.5524V6.93894C17.5802 5.3802 19.2032 4.57568 21.313 4.57568C23.0982 4.57568 24.6129 5.17907 25.8031 6.33556C26.9932 7.49204 27.5883 8.95022 27.5883 10.7101C27.5883 12.47 26.9932 13.9281 25.8031 15.0846C24.6129 16.2411 23.1523 16.7942 21.313 16.7942C19.2032 16.7942 17.6343 15.9897 16.5524 14.431V21.3196H14.5508V4.77681ZM17.7966 13.8779C18.6081 14.6824 19.69 15.0846 21.0425 15.0846C22.3949 15.0846 23.4769 14.6824 24.2883 13.8779C25.0998 13.0734 25.5326 12.0174 25.5326 10.7604C25.5326 9.50333 25.0998 8.4474 24.2883 7.64289C23.4769 6.83838 22.3408 6.43612 21.0425 6.43612C19.69 6.43612 18.6081 6.83838 17.7966 7.64289C16.9852 8.4474 16.5524 9.50333 16.5524 10.7604C16.5524 12.0174 16.9852 13.0734 17.7966 13.8779Z" fill="white"/>
<path d="M30.5118 6.33557C31.7019 5.17908 33.2708 4.62598 35.1642 4.62598C37.4363 4.62598 39.1674 5.43049 40.3575 6.98923L38.8969 7.99487C38.0854 6.88867 36.8412 6.38585 35.2183 6.38585C33.8658 6.38585 32.7298 6.78811 31.9183 7.59262C31.1069 8.39713 30.6741 9.45305 30.6741 10.7101C30.6741 11.9672 31.1069 13.0231 31.9183 13.8276C32.7298 14.6321 33.8658 15.0344 35.2183 15.0344C36.7871 15.0344 38.0313 14.4813 38.8969 13.4253L40.3575 14.431C39.1674 16.04 37.4363 16.8445 35.1642 16.8445C33.2708 16.8445 31.7019 16.2914 30.5118 15.1349C29.3216 13.9784 28.7266 12.5203 28.7266 10.7101C28.7266 8.95023 29.3216 7.44177 30.5118 6.33557Z" fill="white"/>
<path d="M42.0349 0.301692C42.2513 0.100564 42.5759 0 42.9005 0C43.2251 0 43.4956 0.100564 43.7661 0.301692C43.9824 0.502821 44.1447 0.754231 44.1447 1.10621C44.1447 1.4079 44.0365 1.70959 43.7661 1.91072C43.4956 2.11185 43.2251 2.26269 42.9005 2.26269C42.5759 2.26269 42.3054 2.16213 42.0349 1.91072C41.7644 1.70959 41.6562 1.4079 41.6562 1.10621C41.7103 0.804513 41.8185 0.502821 42.0349 0.301692ZM41.9267 16.6434V4.7768H43.9283L43.8742 16.6434H41.9267Z" fill="white"/>
<path d="M45.7656 10.7109C45.7656 8.90078 46.3607 7.4426 47.6049 6.28611C48.7951 5.12962 50.3639 4.57652 52.2573 4.57652C54.1507 4.57652 55.7196 5.12962 56.9097 6.28611C58.0998 7.4426 58.749 8.90078 58.749 10.7109C58.749 12.4708 58.1539 13.929 56.9638 15.1358C55.7196 16.2922 54.2048 16.8956 52.2573 16.8956C50.3639 16.8956 48.7951 16.2922 47.6049 15.1358C46.3607 13.9793 45.7656 12.4708 45.7656 10.7109ZM49.0115 13.8284C49.8229 14.6329 50.9049 15.0855 52.2573 15.0855C53.6098 15.0855 54.6376 14.6832 55.5032 13.8787C56.3146 13.0742 56.7474 12.0183 56.7474 10.7612C56.7474 9.50416 56.3146 8.44824 55.5032 7.64373C54.6917 6.83921 53.6098 6.43696 52.2573 6.43696C50.9049 6.43696 49.8229 6.83921 49.0115 7.64373C48.2 8.44824 47.7672 9.50416 47.7672 10.7612C47.7131 11.968 48.1459 13.0239 49.0115 13.8284ZM51.3377 3.06806L52.636 0.553955H54.4753L53.1229 3.06806H51.3377Z" fill="white"/>
<path d="M60.3203 4.77682H62.3219V6.38585C63.2416 5.17908 64.594 4.62598 66.4333 4.62598C67.8399 4.62598 69.03 5.02823 70.0038 5.83275C70.9775 6.63726 71.4644 7.79375 71.4644 9.35249V16.6434H69.4628V9.6039C69.4628 8.4977 69.1382 7.69318 68.4349 7.0898C67.7317 6.48641 66.8661 6.235 65.8924 6.235C64.8645 6.235 63.9989 6.5367 63.3498 7.0898C62.6465 7.69318 62.3219 8.4977 62.3219 9.6039V16.6434H60.3203V4.77682Z" fill="white"/>
<path d="M71.5613 38.3724C70.7499 34.7019 68.586 31.333 65.5565 28.8189C62.2025 26.0031 57.2796 23.7906 52.6813 23.8409C47.8125 23.8912 43.1601 25.3494 39.4815 28.3663C35.2619 31.7855 32.7734 36.864 32.7734 42.043C32.7734 44.6577 33.3685 47.2221 34.5046 49.5854C36.7766 54.2113 41.429 58.1333 46.7847 59.3904C47.3797 59.5412 49.2191 59.8932 51.6535 59.8429C55.3321 59.692 58.1451 58.5356 59.714 57.7813C57.496 58.0327 53.8714 58.1333 49.76 56.7254C48.624 56.3232 47.3257 55.8706 45.865 54.865C41.2667 51.6972 40.4012 46.7193 40.2389 45.5125C39.9143 43.4509 39.9143 41.3391 40.6717 39.3781C41.3749 37.4171 42.8356 35.6572 44.8372 34.7521C46.7847 33.8973 49.1109 33.9476 51.0043 34.8024C52.8977 35.7075 54.3042 37.4674 54.737 39.3781C54.9534 40.434 54.8993 41.5905 55.1698 42.6464C55.4403 43.7023 56.1976 44.8086 57.3878 44.9594C58.3615 45.1102 59.3894 44.6074 59.9304 43.8532C60.5254 43.099 60.6877 42.1436 60.7959 41.2385C61.2287 36.8137 58.9566 32.238 55.0075 29.7239C57.9829 30.2268 60.6877 31.7352 62.5811 33.9476C64.4745 36.16 65.3942 38.9758 65.1778 41.7916C65.0155 44.2554 63.8254 46.7696 61.6615 48.1775C59.6599 49.4848 56.9009 49.7865 54.6829 48.8814C52.4108 47.9763 50.7338 45.9148 50.4092 43.6521C50.2469 42.6464 50.3551 41.5905 50.1387 40.5849C49.9223 39.5792 49.3273 38.5736 48.2994 38.2719C47.3257 37.9702 46.1896 38.4227 45.5404 39.177C44.8913 39.9312 44.6208 40.9368 44.4585 41.8922C43.8634 46.2165 46.0273 50.7921 49.9223 53.3062C54.5747 56.3231 60.6336 55.8706 65.3942 53.2559C65.6647 53.1051 65.9352 52.9542 66.2057 52.8034C68.4237 51.4458 69.9925 49.2334 70.9121 46.9204C71.7777 44.708 72.1564 42.2944 71.94 39.9312C71.7777 39.5289 71.6695 38.9256 71.5613 38.3724Z" fill="white"/>
</svg>
